<svg width="35" height="36" viewBox="0 0 35 36" fill="none" xmlns="http://www.w3.org/2000/svg">
<g id="letter-c 1">
<g id="Layer_3">
<rect id="Rectangle 1" x="7.41168" y="8.11768" width="19.7647" height="19.7647" fill="#E7F874"/>
<path id="Vector" d="M25.7142 3.09473H8.87409C5.29096 3.09473 2.38879 5.9969 2.38879 9.58002V26.4202C2.38879 30.0033 5.29096 32.9055 8.87409 32.9055H25.7142C29.2974 32.9055 32.1995 30.0033 32.1995 26.4202V9.58002C32.1995 5.9969 29.2974 3.09473 25.7142 3.09473ZM26.7303 20.4483C26.4006 21.6859 25.8493 22.7776 25.0981 23.6909C24.3415 24.6097 23.3633 25.3339 22.19 25.8419C21.0286 26.3391 19.5473 26.5931 17.786 26.5931C16.1106 26.5931 14.6892 26.4364 13.5543 26.1175C12.3978 25.7933 11.3817 25.2582 10.5386 24.5286C9.70096 23.799 9.03622 22.9343 8.56604 21.9561C8.08504 20.9671 7.84185 19.6592 7.84185 18.0649C7.84185 16.4004 8.13368 14.9844 8.71196 13.8603C9.1389 13.028 9.72798 12.2768 10.463 11.6229C11.1926 10.9744 11.9546 10.4772 12.7328 10.1583C13.9488 9.65568 15.5053 9.40708 17.3644 9.40708C19.9802 9.40708 22.0176 9.88807 23.4282 10.8501C24.8441 11.812 25.8493 13.2388 26.4168 15.0817C26.4654 15.233 26.4438 15.4006 26.3574 15.5357C26.2714 15.6654 26.1304 15.7573 25.9736 15.7789L20.4125 16.5193C20.1482 16.5571 19.8883 16.3842 19.818 16.1194C19.6775 15.5843 19.4343 15.1952 19.0722 14.9304C18.7101 14.671 18.1967 14.5359 17.5428 14.5359C16.7213 14.5359 16.0782 14.8169 15.5756 15.4006C15.0621 15.9951 14.8027 16.9462 14.8027 18.2271C14.8027 19.3458 15.0567 20.1943 15.5593 20.7455C16.0566 21.286 16.6781 21.5508 17.4509 21.5508C18.1151 21.5508 18.6453 21.3941 19.083 21.0644C19.5159 20.7401 19.851 20.2159 20.072 19.5079C20.1531 19.2593 20.3968 19.1026 20.6503 19.1296L26.2655 19.7727C26.4222 19.789 26.5633 19.87 26.6492 20.0051C26.7411 20.1348 26.7681 20.2916 26.7303 20.4483Z" fill="#01303A"/>
</g>
</g>
</svg>
